<mxfile host="app.diagrams.net" agent="Mozilla/5.0 (Macintosh; Intel Mac OS X 10_15_7) AppleWebKit/537.36 (KHTML, like Gecko) Chrome/127.0.0.0 Safari/537.36" version="24.7.6">
  <diagram name="Page-1" id="GWibtaxzaema7wlytIbL">
    <mxGraphModel dx="794" dy="421" grid="1" gridSize="10" guides="1" tooltips="1" connect="1" arrows="1" fold="1" page="1" pageScale="1" pageWidth="827" pageHeight="1169" math="0" shadow="0">
      <root>
        <mxCell id="0" />
        <mxCell id="1" parent="0" />
        <mxCell id="ZbpN8scLJ3V64mmjm31p-22" style="edgeStyle=orthogonalEdgeStyle;rounded=0;orthogonalLoop=1;jettySize=auto;html=1;" edge="1" parent="1" source="ZbpN8scLJ3V64mmjm31p-1" target="ZbpN8scLJ3V64mmjm31p-3">
          <mxGeometry relative="1" as="geometry" />
        </mxCell>
        <mxCell id="ZbpN8scLJ3V64mmjm31p-1" value="" style="sketch=0;pointerEvents=1;shadow=0;dashed=0;html=1;strokeColor=none;fillColor=#505050;labelPosition=center;verticalLabelPosition=bottom;verticalAlign=top;outlineConnect=0;align=center;shape=mxgraph.office.users.csv_file;" vertex="1" parent="1">
          <mxGeometry x="30" y="203.5" width="59" height="43" as="geometry" />
        </mxCell>
        <mxCell id="ZbpN8scLJ3V64mmjm31p-2" value="CSV File" style="text;strokeColor=none;align=center;fillColor=none;html=1;verticalAlign=middle;whiteSpace=wrap;rounded=0;" vertex="1" parent="1">
          <mxGeometry x="30" y="240" width="60" height="30" as="geometry" />
        </mxCell>
        <mxCell id="ZbpN8scLJ3V64mmjm31p-5" value="" style="rounded=0;whiteSpace=wrap;html=1;" vertex="1" parent="1">
          <mxGeometry x="530" y="90" width="260" height="218.5" as="geometry" />
        </mxCell>
        <mxCell id="ZbpN8scLJ3V64mmjm31p-3" value="Amazon S3" style="sketch=0;outlineConnect=0;fontColor=#232F3E;gradientColor=none;strokeColor=#ffffff;fillColor=#232F3E;dashed=0;verticalLabelPosition=middle;verticalAlign=bottom;align=center;html=1;whiteSpace=wrap;fontSize=10;fontStyle=1;spacing=3;shape=mxgraph.aws4.productIcon;prIcon=mxgraph.aws4.s3;" vertex="1" parent="1">
          <mxGeometry x="181" y="180" width="79" height="100" as="geometry" />
        </mxCell>
        <mxCell id="ZbpN8scLJ3V64mmjm31p-4" value="Amazon Redshift" style="sketch=0;outlineConnect=0;fontColor=#232F3E;gradientColor=none;strokeColor=#ffffff;fillColor=#232F3E;dashed=0;verticalLabelPosition=middle;verticalAlign=bottom;align=center;html=1;whiteSpace=wrap;fontSize=10;fontStyle=1;spacing=3;shape=mxgraph.aws4.productIcon;prIcon=mxgraph.aws4.redshift;" vertex="1" parent="1">
          <mxGeometry x="530" y="91.5" width="80" height="110" as="geometry" />
        </mxCell>
        <mxCell id="ZbpN8scLJ3V64mmjm31p-6" value="" style="shape=cylinder3;whiteSpace=wrap;html=1;boundedLbl=1;backgroundOutline=1;size=15;" vertex="1" parent="1">
          <mxGeometry x="650" y="151.5" width="90" height="118.5" as="geometry" />
        </mxCell>
        <mxCell id="ZbpN8scLJ3V64mmjm31p-7" value="airport_dim" style="text;strokeColor=none;align=center;fillColor=none;html=1;verticalAlign=middle;whiteSpace=wrap;rounded=0;" vertex="1" parent="1">
          <mxGeometry x="665" y="184.25" width="60" height="30" as="geometry" />
        </mxCell>
        <mxCell id="ZbpN8scLJ3V64mmjm31p-9" value="Flight_fact" style="text;strokeColor=none;align=center;fillColor=none;html=1;verticalAlign=middle;whiteSpace=wrap;rounded=0;" vertex="1" parent="1">
          <mxGeometry x="665" y="223" width="60" height="30" as="geometry" />
        </mxCell>
        <mxCell id="ZbpN8scLJ3V64mmjm31p-25" style="edgeStyle=orthogonalEdgeStyle;rounded=0;orthogonalLoop=1;jettySize=auto;html=1;" edge="1" parent="1" source="ZbpN8scLJ3V64mmjm31p-10" target="ZbpN8scLJ3V64mmjm31p-11">
          <mxGeometry relative="1" as="geometry" />
        </mxCell>
        <mxCell id="ZbpN8scLJ3V64mmjm31p-10" value="" style="sketch=0;points=[[0,0,0],[0.25,0,0],[0.5,0,0],[0.75,0,0],[1,0,0],[0,1,0],[0.25,1,0],[0.5,1,0],[0.75,1,0],[1,1,0],[0,0.25,0],[0,0.5,0],[0,0.75,0],[1,0.25,0],[1,0.5,0],[1,0.75,0]];outlineConnect=0;fontColor=#232F3E;fillColor=#E7157B;strokeColor=#ffffff;dashed=0;verticalLabelPosition=bottom;verticalAlign=top;align=center;html=1;fontSize=12;fontStyle=0;aspect=fixed;shape=mxgraph.aws4.resourceIcon;resIcon=mxgraph.aws4.eventbridge;" vertex="1" parent="1">
          <mxGeometry x="310" y="184.25" width="70" height="70" as="geometry" />
        </mxCell>
        <mxCell id="ZbpN8scLJ3V64mmjm31p-11" value="AWS Step Functions workflow" style="points=[[0,0],[0.25,0],[0.5,0],[0.75,0],[1,0],[1,0.25],[1,0.5],[1,0.75],[1,1],[0.75,1],[0.5,1],[0.25,1],[0,1],[0,0.75],[0,0.5],[0,0.25]];outlineConnect=0;gradientColor=none;html=1;whiteSpace=wrap;fontSize=12;fontStyle=0;container=1;pointerEvents=0;collapsible=0;recursiveResize=0;shape=mxgraph.aws4.group;grIcon=mxgraph.aws4.group_aws_step_functions_workflow;strokeColor=#CD2264;fillColor=none;verticalAlign=top;align=left;spacingLeft=30;fontColor=#CD2264;dashed=0;" vertex="1" parent="1">
          <mxGeometry x="147" y="350" width="396" height="400" as="geometry" />
        </mxCell>
        <mxCell id="ZbpN8scLJ3V64mmjm31p-16" style="edgeStyle=orthogonalEdgeStyle;rounded=0;orthogonalLoop=1;jettySize=auto;html=1;" edge="1" parent="ZbpN8scLJ3V64mmjm31p-11" source="ZbpN8scLJ3V64mmjm31p-12" target="ZbpN8scLJ3V64mmjm31p-13">
          <mxGeometry relative="1" as="geometry" />
        </mxCell>
        <mxCell id="ZbpN8scLJ3V64mmjm31p-12" value="" style="sketch=0;outlineConnect=0;fontColor=#232F3E;gradientColor=none;fillColor=#8C4FFF;strokeColor=none;dashed=0;verticalLabelPosition=bottom;verticalAlign=top;align=center;html=1;fontSize=12;fontStyle=0;aspect=fixed;pointerEvents=1;shape=mxgraph.aws4.glue_crawlers;" vertex="1" parent="ZbpN8scLJ3V64mmjm31p-11">
          <mxGeometry x="41" y="40" width="78" height="78" as="geometry" />
        </mxCell>
        <mxCell id="ZbpN8scLJ3V64mmjm31p-13" value="AWS Glue" style="sketch=0;outlineConnect=0;fontColor=#232F3E;gradientColor=none;strokeColor=#ffffff;fillColor=#232F3E;dashed=0;verticalLabelPosition=middle;verticalAlign=bottom;align=center;html=1;whiteSpace=wrap;fontSize=10;fontStyle=1;spacing=3;shape=mxgraph.aws4.productIcon;prIcon=mxgraph.aws4.glue;" vertex="1" parent="ZbpN8scLJ3V64mmjm31p-11">
          <mxGeometry x="40" y="200" width="80" height="110" as="geometry" />
        </mxCell>
        <mxCell id="ZbpN8scLJ3V64mmjm31p-19" value="" style="endArrow=classic;html=1;rounded=0;fillColor=#f8cecc;strokeColor=#b85450;" edge="1" parent="ZbpN8scLJ3V64mmjm31p-11" target="ZbpN8scLJ3V64mmjm31p-14">
          <mxGeometry width="50" height="50" relative="1" as="geometry">
            <mxPoint x="119" y="230" as="sourcePoint" />
            <mxPoint x="169" y="180" as="targetPoint" />
            <Array as="points">
              <mxPoint x="340" y="230" />
            </Array>
          </mxGeometry>
        </mxCell>
        <mxCell id="ZbpN8scLJ3V64mmjm31p-20" value="Success" style="text;strokeColor=none;align=center;fillColor=none;html=1;verticalAlign=middle;whiteSpace=wrap;rounded=0;" vertex="1" parent="ZbpN8scLJ3V64mmjm31p-11">
          <mxGeometry x="330" y="230" width="60" height="30" as="geometry" />
        </mxCell>
        <mxCell id="ZbpN8scLJ3V64mmjm31p-21" value="Failure" style="text;strokeColor=none;align=center;fillColor=none;html=1;verticalAlign=middle;whiteSpace=wrap;rounded=0;" vertex="1" parent="ZbpN8scLJ3V64mmjm31p-11">
          <mxGeometry x="220" y="210" width="60" height="30" as="geometry" />
        </mxCell>
        <mxCell id="ZbpN8scLJ3V64mmjm31p-26" value="Amazon SNS" style="sketch=0;outlineConnect=0;fontColor=#232F3E;gradientColor=none;strokeColor=#ffffff;fillColor=#232F3E;dashed=0;verticalLabelPosition=middle;verticalAlign=bottom;align=center;html=1;whiteSpace=wrap;fontSize=10;fontStyle=1;spacing=3;shape=mxgraph.aws4.productIcon;prIcon=mxgraph.aws4.sns;" vertex="1" parent="ZbpN8scLJ3V64mmjm31p-11">
          <mxGeometry x="303" y="280" width="80" height="100" as="geometry" />
        </mxCell>
        <mxCell id="ZbpN8scLJ3V64mmjm31p-27" style="edgeStyle=orthogonalEdgeStyle;rounded=0;orthogonalLoop=1;jettySize=auto;html=1;entryX=0.513;entryY=0;entryDx=0;entryDy=0;entryPerimeter=0;fillColor=#d5e8d4;strokeColor=#82b366;" edge="1" parent="ZbpN8scLJ3V64mmjm31p-11" source="ZbpN8scLJ3V64mmjm31p-13" target="ZbpN8scLJ3V64mmjm31p-26">
          <mxGeometry relative="1" as="geometry" />
        </mxCell>
        <mxCell id="ZbpN8scLJ3V64mmjm31p-14" value="Amazon SNS" style="sketch=0;outlineConnect=0;fontColor=#232F3E;gradientColor=none;strokeColor=#ffffff;fillColor=#232F3E;dashed=0;verticalLabelPosition=middle;verticalAlign=bottom;align=center;html=1;whiteSpace=wrap;fontSize=10;fontStyle=1;spacing=3;shape=mxgraph.aws4.productIcon;prIcon=mxgraph.aws4.sns;" vertex="1" parent="1">
          <mxGeometry x="447" y="380" width="80" height="100" as="geometry" />
        </mxCell>
        <mxCell id="ZbpN8scLJ3V64mmjm31p-15" style="edgeStyle=orthogonalEdgeStyle;rounded=1;orthogonalLoop=1;jettySize=auto;html=1;entryX=1;entryY=0;entryDx=0;entryDy=81.375;entryPerimeter=0;fillColor=#d5e8d4;strokeColor=#98D177;curved=0;" edge="1" parent="1" source="ZbpN8scLJ3V64mmjm31p-13" target="ZbpN8scLJ3V64mmjm31p-6">
          <mxGeometry relative="1" as="geometry" />
        </mxCell>
        <mxCell id="ZbpN8scLJ3V64mmjm31p-24" style="edgeStyle=orthogonalEdgeStyle;rounded=0;orthogonalLoop=1;jettySize=auto;html=1;entryX=0;entryY=0.5;entryDx=0;entryDy=0;entryPerimeter=0;" edge="1" parent="1" source="ZbpN8scLJ3V64mmjm31p-3" target="ZbpN8scLJ3V64mmjm31p-10">
          <mxGeometry relative="1" as="geometry" />
        </mxCell>
      </root>
    </mxGraphModel>
  </diagram>
</mxfile>
